<svg xmlns="http://www.w3.org/2000/svg" xmlns:xlink="http://www.w3.org/1999/xlink" width="500" zoomAndPan="magnify" viewBox="0 0 375 374.999991" height="500" preserveAspectRatio="xMidYMid meet" version="1.0"><defs><g/><clipPath id="1f6dbeb4f1"><path d="M 187.5 0 C 83.945312 0 0 83.945312 0 187.5 C 0 291.054688 83.945312 375 187.5 375 C 291.054688 375 375 291.054688 375 187.5 C 375 83.945312 291.054688 0 187.5 0 Z M 187.5 0 " clip-rule="nonzero"/></clipPath><clipPath id="8398b17a4f"><path d="M 103.675781 256 L 246 256 L 246 277 L 103.675781 277 Z M 103.675781 256 " clip-rule="nonzero"/></clipPath><clipPath id="7ab7fb674d"><path d="M 168 193.15625 L 359 193.15625 L 359 279 L 168 279 Z M 168 193.15625 " clip-rule="nonzero"/></clipPath><clipPath id="e8f12172cd"><path d="M 296.785156 193.15625 L 336.980469 193.15625 L 336.980469 198.910156 L 296.785156 198.910156 Z M 296.785156 193.15625 " clip-rule="nonzero"/></clipPath><clipPath id="33e74fc4f0"><path d="M 299.765625 207.832031 L 339.964844 207.832031 L 339.964844 213.585938 L 299.765625 213.585938 Z M 299.765625 207.832031 " clip-rule="nonzero"/></clipPath></defs><g clip-path="url(#1f6dbeb4f1)"><rect x="-37.5" width="450" fill="#ffffff" y="-37.499999" height="449.999989" fill-opacity="1"/></g><g clip-path="url(#8398b17a4f)"><path fill="#0096d6" d="M 245.398438 267.109375 C 220.175781 261.472656 198.097656 268.363281 173.695312 273.679688 C 149.671875 278.90625 126.214844 275.894531 103.675781 266.078125 C 128.898438 271.722656 150.976562 264.824219 175.378906 259.507812 C 199.402344 254.28125 222.859375 257.289062 245.398438 267.109375 " fill-opacity="1" fill-rule="nonzero"/></g><path fill="#3d5a80" d="M 138.570312 253.339844 C 161.238281 227.953125 197.46875 212.605469 230.460938 224.109375 C 246.484375 229.699219 261.472656 238.773438 278.386719 241.554688 C 296.699219 244.5625 313.492188 237.800781 328.859375 228.332031 L 329.609375 229.238281 C 318.699219 241.441406 304.296875 250.671875 287.851562 252.636719 C 269.839844 254.78125 252.757812 248.082031 236.234375 241.824219 C 221.375 236.1875 207.960938 232.667969 191.984375 235.636719 C 173.632812 239.035156 156.253906 246.75 139.277344 254.28125 L 138.570312 253.339844 " fill-opacity="1" fill-rule="nonzero"/><g clip-path="url(#7ab7fb674d)"><path fill="#3d5a80" d="M 168.21875 252.925781 C 183.546875 241.210938 208.660156 243.929688 225.902344 247.378906 C 238.359375 249.878906 250.015625 254.433594 262.144531 258.0625 C 280.8125 263.640625 301.972656 262.667969 319.347656 253.320312 C 327.40625 248.984375 334.355469 242.738281 337.796875 234.03125 C 342.980469 220.921875 339.09375 207.179688 336.75 193.949219 L 337.707031 193.277344 C 354.28125 203.851562 363.136719 225.214844 357.054688 244.28125 C 350.183594 265.847656 328.050781 277.5 306.640625 278.421875 C 274.808594 279.808594 249.847656 260.378906 220.496094 252.195312 C 205.328125 247.960938 183.25 244.332031 168.957031 253.851562 L 168.21875 252.925781 " fill-opacity="1" fill-rule="nonzero"/></g><g fill="#3d5a80" fill-opacity="1"><g transform="translate(11.568662, 213.84177)"><g><path d="M 1.132812 0 L 22.503906 0 L 28.414062 -15.214844 L 63.367188 -15.214844 L 69.277344 0 L 90.648438 0 L 55.699219 -88.007812 L 36.082031 -88.007812 Z M 33.570312 -30.929688 L 45.890625 -63.117188 L 58.335938 -30.929688 Z M 33.570312 -30.929688 "/></g></g></g><g fill="#3d5a80" fill-opacity="1"><g transform="translate(98.318661, 213.84177)"><g><path d="M 33.570312 0 L 53.558594 0 L 53.558594 -31.054688 L 85.871094 -88.007812 L 63.117188 -88.007812 L 52.304688 -67.640625 L 43.628906 -51.675781 L 34.828125 -67.640625 L 23.886719 -88.007812 L 1.132812 -88.007812 L 33.570312 -30.804688 Z M 33.570312 0 "/></g></g></g><g fill="#3d5a80" fill-opacity="1"><g transform="translate(180.291104, 213.84177)"><g><path d="M 1.132812 0 L 22.503906 0 L 28.414062 -15.214844 L 63.367188 -15.214844 L 69.277344 0 L 90.648438 0 L 55.699219 -88.007812 L 36.082031 -88.007812 Z M 33.570312 -30.929688 L 45.890625 -63.117188 L 58.335938 -30.929688 Z M 33.570312 -30.929688 "/></g></g></g><g fill="#3d5a80" fill-opacity="1"><g transform="translate(267.041103, 213.84177)"><g><path d="M 5.28125 0 L 72.417969 0 L 72.417969 -18.105469 L 31.304688 -18.105469 L 71.414062 -73.550781 L 71.414062 -88.007812 L 6.664062 -88.007812 L 6.664062 -69.90625 L 45.511719 -69.90625 L 5.28125 -14.457031 Z M 5.28125 0 "/></g></g></g><g clip-path="url(#e8f12172cd)"><path fill="#3d5a80" d="M 296.785156 193.15625 L 336.980469 193.15625 L 336.980469 198.910156 L 296.785156 198.910156 Z M 296.785156 193.15625 " fill-opacity="1" fill-rule="nonzero"/></g><g clip-path="url(#33e74fc4f0)"><path fill="#3d5a80" d="M 299.765625 207.832031 L 339.964844 207.832031 L 339.964844 213.585938 L 299.765625 213.585938 Z M 299.765625 207.832031 " fill-opacity="1" fill-rule="nonzero"/></g></svg>