<svg xmlns="http://www.w3.org/2000/svg" xmlns:xlink="http://www.w3.org/1999/xlink" width="500" zoomAndPan="magnify" viewBox="0 0 375 374.999991" height="500" preserveAspectRatio="xMidYMid meet" version="1.0"><defs><g/><clipPath id="178550a1ea"><path d="M 103.894531 223 L 250 223 L 250 243 L 103.894531 243 Z M 103.894531 223 " clip-rule="nonzero"/></clipPath><clipPath id="62221b260e"><path d="M 339 158 L 364 158 L 364 178 L 339 178 Z M 339 158 " clip-rule="nonzero"/></clipPath><clipPath id="22e7963e49"><path d="M 339.84375 157.921875 L 368.339844 158.417969 L 368.011719 177.164062 L 339.515625 176.667969 Z M 339.84375 157.921875 " clip-rule="nonzero"/></clipPath><clipPath id="6b19fb49a0"><path d="M 102.375 153.777344 L 368.582031 158.421875 L 367.039062 246.910156 L 100.828125 242.261719 Z M 102.375 153.777344 " clip-rule="nonzero"/></clipPath></defs><g clip-path="url(#178550a1ea)"><path fill="#ffffff" d="M 249.269531 233.34375 C 223.398438 227.59375 200.75 234.621094 175.71875 240.042969 C 151.074219 245.375 127.015625 242.304688 103.894531 232.289062 C 129.765625 238.050781 152.414062 231.011719 177.445312 225.589844 C 202.089844 220.261719 226.152344 223.328125 249.269531 233.34375 " fill-opacity="1" fill-rule="nonzero"/></g><path fill="#0096d6" d="M 139.6875 219.296875 C 162.941406 193.40625 200.105469 177.753906 233.945312 189.488281 C 250.386719 195.1875 265.761719 204.445312 283.109375 207.277344 C 301.894531 210.347656 319.121094 203.453125 334.882812 193.796875 L 335.652344 194.714844 C 324.460938 207.164062 309.6875 216.578125 292.820312 218.582031 C 274.34375 220.773438 256.820312 213.9375 239.871094 207.554688 C 224.625 201.804688 210.867188 198.214844 194.480469 201.242188 C 175.65625 204.710938 157.824219 212.578125 140.414062 220.261719 L 139.6875 219.296875 " fill-opacity="1" fill-rule="nonzero"/><path fill="#0096d6" d="M 170.101562 218.878906 C 185.824219 206.929688 211.582031 209.703125 229.269531 213.222656 C 242.046875 215.769531 254.007812 220.414062 266.445312 224.117188 C 285.597656 229.804688 307.304688 228.8125 325.125 219.277344 C 333.390625 214.859375 340.519531 208.484375 344.050781 199.605469 C 349.371094 186.234375 345.378906 172.222656 342.976562 158.726562 L 343.957031 158.042969 C 360.960938 168.824219 370.042969 190.613281 363.804688 210.0625 C 356.753906 232.054688 334.054688 243.941406 312.09375 244.882812 C 279.4375 246.296875 253.832031 226.480469 223.726562 218.132812 C 208.167969 213.816406 185.519531 210.113281 170.859375 219.820312 L 170.101562 218.878906 " fill-opacity="1" fill-rule="nonzero"/><g fill="#0096d6" fill-opacity="1"><g transform="translate(8.094961, 176.400256)"><g><path d="M 1.160156 0 L 23.058594 0 L 29.113281 -15.585938 L 64.925781 -15.585938 L 70.980469 0 L 92.878906 0 L 57.066406 -90.171875 L 36.972656 -90.171875 Z M 34.394531 -31.691406 L 47.019531 -64.667969 L 59.773438 -31.691406 Z M 34.394531 -31.691406 "/></g></g></g><g fill="#0096d6" fill-opacity="1"><g transform="translate(96.978277, 176.400256)"><g><path d="M 34.394531 0 L 54.878906 0 L 54.878906 -31.820312 L 87.984375 -90.171875 L 64.667969 -90.171875 L 53.589844 -69.304688 L 44.699219 -52.945312 L 35.683594 -69.304688 L 24.476562 -90.171875 L 1.160156 -90.171875 L 34.394531 -31.5625 Z M 34.394531 0 "/></g></g></g><g fill="#0096d6" fill-opacity="1"><g transform="translate(180.966551, 176.400256)"><g><path d="M 1.160156 0 L 23.058594 0 L 29.113281 -15.585938 L 64.925781 -15.585938 L 70.980469 0 L 92.878906 0 L 57.066406 -90.171875 L 36.972656 -90.171875 Z M 34.394531 -31.691406 L 47.019531 -64.667969 L 59.773438 -31.691406 Z M 34.394531 -31.691406 "/></g></g></g><g fill="#0096d6" fill-opacity="1"><g transform="translate(269.849867, 176.400256)"><g><path d="M 5.410156 0 L 74.199219 0 L 74.199219 -18.550781 L 32.074219 -18.550781 L 73.167969 -75.359375 L 73.167969 -90.171875 L 6.828125 -90.171875 L 6.828125 -71.625 L 46.632812 -71.625 L 5.410156 -14.8125 Z M 5.410156 0 "/></g></g></g><g fill="#ffffff" fill-opacity="1"><g transform="translate(24.631532, 219.250723)"><g><path d="M 2.6875 0 L 7.742188 0 L 7.742188 -13.5 L 13.183594 -5.535156 L 16.703125 -5.535156 L 22.140625 -13.46875 L 22.140625 0 L 27.195312 0 L 27.195312 -22.398438 L 22.910156 -22.398438 L 14.972656 -10.78125 L 7.007812 -22.398438 L 2.6875 -22.398438 Z M 2.6875 0 "/></g></g></g><g fill="#ffffff" fill-opacity="1"><g transform="translate(53.232189, 219.250723)"><g><path d="M 2.6875 0 L 17.757812 0 L 17.757812 -4.320312 L 7.742188 -4.320312 L 7.742188 -9.214844 L 16.542969 -9.214844 L 16.542969 -13.46875 L 7.742188 -13.46875 L 7.742188 -18.109375 L 17.40625 -18.109375 L 17.40625 -22.398438 L 2.6875 -22.398438 Z M 2.6875 0 "/></g></g></g><g fill="#ffffff" fill-opacity="1"><g transform="translate(71.339416, 219.250723)"><g><path d="M 2.6875 0 L 11.550781 0 C 18.621094 0 23.355469 -4.511719 23.355469 -11.199219 C 23.355469 -17.851562 18.621094 -22.398438 11.550781 -22.398438 L 2.6875 -22.398438 Z M 7.773438 -4.671875 L 7.773438 -17.726562 L 11.390625 -17.726562 C 15.421875 -17.726562 18.140625 -15.132812 18.140625 -11.199219 C 18.140625 -7.261719 15.421875 -4.671875 11.453125 -4.671875 Z M 7.773438 -4.671875 "/></g></g></g><g fill="#ffffff" fill-opacity="1"><g transform="translate(94.757339, 219.250723)"><g><path d="M 2.6875 0 L 7.773438 0 L 7.773438 -22.398438 L 2.6875 -22.398438 Z M 2.6875 0 "/></g></g></g><g fill="#ffffff" fill-opacity="1"><g transform="translate(103.938773, 219.250723)"><g><path d="M 0.289062 0 L 5.726562 0 L 7.230469 -3.871094 L 16.125 -3.871094 L 17.628906 0 L 23.070312 0 L 14.171875 -22.398438 L 9.183594 -22.398438 Z M 8.542969 -7.871094 L 11.679688 -16.0625 L 14.84375 -7.871094 Z M 8.542969 -7.871094 "/></g></g></g><g clip-path="url(#62221b260e)"><g clip-path="url(#22e7963e49)"><g clip-path="url(#6b19fb49a0)"><path fill="#0096d6" d="M 167.507812 215.878906 C 183.4375 204.207031 209.144531 207.429688 226.765625 211.257812 C 239.496094 214.027344 251.371094 218.878906 263.746094 222.796875 C 282.792969 228.820312 304.515625 228.207031 322.5 218.984375 C 330.839844 214.710938 338.082031 208.460938 341.765625 199.644531 C 347.316406 186.371094 343.574219 172.289062 341.40625 158.753906 L 342.398438 158.085938 C 359.210938 169.164062 367.914062 191.109375 361.332031 210.445312 C 353.902344 232.3125 331 243.800781 309.023438 244.359375 C 276.347656 245.199219 251.09375 224.941406 221.136719 216.070312 C 205.65625 211.480469 183.074219 207.382812 168.246094 216.835938 L 167.507812 215.878906 " fill-opacity="1" fill-rule="nonzero"/></g></g></g></svg>